<svg width="25" height="24" viewBox="0 0 25 24" fill="none" xmlns="http://www.w3.org/2000/svg">
<path d="M7.45412 8.04673L12.4039 3.09698L17.3536 8.04673C20.0873 10.7804 20.0873 15.2126 17.3536 17.9462C14.62 20.6799 10.1878 20.6799 7.45412 17.9462C4.72045 15.2126 4.72045 10.7804 7.45412 8.04673ZM18.7679 6.63252L12.4039 0.268555L6.03991 6.63252C2.52519 10.1472 2.52519 15.8457 6.03991 19.3604C9.55463 22.8752 15.2531 22.8752 18.7679 19.3604C22.2826 15.8457 22.2826 10.1472 18.7679 6.63252ZM16.6466 10.1714L15.2324 8.75718L8.16127 15.8282L9.57548 17.2425L16.6466 10.1714ZM8.51482 11.232C9.10061 11.8178 10.0503 11.8178 10.6362 11.232C11.222 10.6463 11.222 9.69652 10.6362 9.11073C10.0503 8.52494 9.10061 8.52494 8.51482 9.11073C7.92903 9.69652 7.92903 10.6463 8.51482 11.232ZM16.293 16.8889C15.7072 17.4747 14.7575 17.4747 14.1717 16.8889C13.5859 16.3031 13.5859 15.3534 14.1717 14.7676C14.7575 14.1818 15.7072 14.1818 16.293 14.7676C16.8788 15.3534 16.8788 16.3031 16.293 16.8889Z" fill="white"/>
</svg>
