<svg width="18" height="19" viewBox="0 0 18 19" fill="none" xmlns="http://www.w3.org/2000/svg">
<path d="M14.1809 13.5397L17.9283 17.2871L16.6909 18.5245L12.9435 14.7771C11.5961 15.8551 9.88731 16.5 8.02881 16.5C3.68181 16.5 0.153809 12.972 0.153809 8.625C0.153809 4.278 3.68181 0.75 8.02881 0.75C12.3758 0.75 15.9038 4.278 15.9038 8.625C15.9038 10.4835 15.2589 12.1923 14.1809 13.5397ZM12.4254 12.8904C13.4954 11.7878 14.1538 10.2836 14.1538 8.625C14.1538 5.24094 11.4129 2.5 8.02881 2.5C4.64475 2.5 1.90381 5.24094 1.90381 8.625C1.90381 12.0091 4.64475 14.75 8.02881 14.75C9.68746 14.75 11.1916 14.0916 12.2943 13.0216L12.4254 12.8904Z" fill="white"/>
</svg>
