<svg width="24" height="21" viewBox="0 0 24 21" fill="none" xmlns="http://www.w3.org/2000/svg">
  <path d="M9.80064 3.33808C11.0534 1.33348 13.2801 0 15.8182 0C19.7344 0 22.9091 3.17471 22.9091 7.09091C22.9091 8.26943 22.6216 9.38084 22.1128 10.3587C23.2747 11.4529 24 13.0054 24 14.7273C24 18.041 21.3137 20.7273 18 20.7273H8.72727C3.90733 20.7273 0 16.82 0 12C0 7.18006 3.90733 3.27273 8.72727 3.27273C9.09068 3.27273 9.4489 3.29494 9.80064 3.33808ZM12.0604 3.93184C14.2555 4.83968 15.9995 6.61722 16.8628 8.83484C17.231 8.76426 17.6112 8.72727 18 8.72727C18.8019 8.72727 19.5672 8.88458 20.2665 9.17007C20.5621 8.53875 20.7273 7.83412 20.7273 7.09091C20.7273 4.37969 18.5294 2.18182 15.8182 2.18182C14.3102 2.18182 12.961 2.86178 12.0604 3.93184ZM18 18.5455C20.1087 18.5455 21.8182 16.836 21.8182 14.7273C21.8182 12.6185 20.1087 10.9091 18 10.9091C16.9315 10.9091 15.9656 11.348 15.2725 12.0553C15.2726 12.0369 15.2727 12.0184 15.2727 12C15.2727 8.38504 12.3422 5.45455 8.72727 5.45455C5.11232 5.45455 2.18182 8.38504 2.18182 12C2.18182 15.6149 5.11232 18.5455 8.72727 18.5455H18Z" fill="white"/>
</svg>