<svg width="151" height="150" viewBox="0 0 151 150" fill="none" xmlns="http://www.w3.org/2000/svg">
<path d="M75.4038 115.909C52.8103 115.909 34.4947 97.5934 34.4947 75C34.4947 52.4065 52.8103 34.0909 75.4038 34.0909C97.9972 34.0909 116.313 52.4065 116.313 75C116.313 97.5934 97.9972 115.909 75.4038 115.909ZM75.4038 102.273C90.4659 102.273 102.677 90.062 102.677 75C102.677 59.9377 90.4659 47.7273 75.4038 47.7273C60.3415 47.7273 48.1311 59.9377 48.1311 75C48.1311 90.062 60.3415 102.273 75.4038 102.273ZM68.5856 0H82.222V20.4545H68.5856V0ZM68.5856 129.545H82.222V150H68.5856V129.545ZM17.5496 26.7882L27.192 17.1458L41.6555 31.6094L32.0132 41.2517L17.5496 26.7882ZM109.152 118.391L118.795 108.748L133.258 123.212L123.616 132.854L109.152 118.391ZM123.616 17.1458L133.258 26.7882L118.795 41.2517L109.152 31.6094L123.616 17.1458ZM32.0132 108.748L41.6555 118.391L27.192 132.854L17.5496 123.212L32.0132 108.748ZM150.404 68.1818V81.8182H129.949V68.1818H150.404ZM20.8584 68.1818V81.8182H0.403809V68.1818H20.8584Z" fill="white"/>
</svg>
