<svg width="25" height="24" viewBox="0 0 25 24" fill="none" xmlns="http://www.w3.org/2000/svg">
<path d="M6.48677 13C6.43221 12.6748 6.40381 12.3407 6.40381 12C6.40381 8.68629 9.0901 6 12.4038 6C15.7175 6 18.4038 8.68629 18.4038 12C18.4038 12.3407 18.3754 12.6748 18.3208 13H16.2778C16.36 12.6804 16.4038 12.3453 16.4038 12C16.4038 9.79086 14.6129 8 12.4038 8C10.1947 8 8.40381 9.79086 8.40381 12C8.40381 12.3453 8.44756 12.6804 8.52983 13H6.48677ZM2.40381 15H12.4038V17H2.40381V15ZM14.4038 15H22.4038V17H14.4038V15ZM16.4038 19H20.4038V21H16.4038V19ZM4.40381 19H14.4038V21H4.40381V19ZM11.4038 1H13.4038V4H11.4038V1ZM3.91853 4.92893L5.33274 3.51472L7.45406 5.63604L6.03985 7.05025L3.91853 4.92893ZM19.4749 3.51472L20.8891 4.92893L18.7678 7.05025L17.3535 5.63604L19.4749 3.51472ZM23.4038 11V13H20.4038V11H23.4038ZM4.40381 11V13H1.40381V11H4.40381Z" fill="white"/>
</svg>
