<svg width="25" height="24" viewBox="0 0 25 24" fill="none" xmlns="http://www.w3.org/2000/svg">
<path d="M10.9039 17H4.40387V15H10.9039C12.8369 15 14.4039 16.567 14.4039 18.5C14.4039 20.433 12.8369 22 10.9039 22C9.40344 22 8.12353 21.0559 7.62583 19.7293L9.499 19.0268C9.7123 19.5954 10.2608 20 10.9039 20C11.7323 20 12.4039 19.3284 12.4039 18.5C12.4039 17.6716 11.7323 17 10.9039 17ZM5.40387 11H18.9039C20.8369 11 22.4039 12.567 22.4039 14.5C22.4039 16.433 20.8369 18 18.9039 18C17.4035 18 16.1236 17.0559 15.6259 15.7293L17.499 15.0268C17.7123 15.5954 18.2609 16 18.9039 16C19.7323 16 20.4039 15.3284 20.4039 14.5C20.4039 13.6716 19.7323 13 18.9039 13H5.40387C3.74702 13 2.40387 11.6569 2.40387 10C2.40387 8.34315 3.74702 7 5.40387 7H13.9039C14.7323 7 15.4039 6.32843 15.4039 5.5C15.4039 4.67157 14.7323 4 13.9039 4C13.2609 4 12.7123 4.40463 12.499 4.97317L10.6259 4.27073C11.1236 2.94414 12.4035 2 13.9039 2C15.8369 2 17.4039 3.567 17.4039 5.5C17.4039 7.433 15.8369 9 13.9039 9H5.40387C4.85159 9 4.40387 9.44772 4.40387 10C4.40387 10.5523 4.85159 11 5.40387 11Z" fill="white"/>
</svg>
